<svg fill="none" xmlns="http://www.w3.org/2000/svg" viewBox="0 0 63 62" class="design-iconfont">
  <rect opacity=".25" x=".5" width="62" height="62" rx="31" fill="#DBDBDB"/>
  <g opacity=".25" stroke="#303030" stroke-width="1.5">
    <path d="M17.7114 23.7106C17.7114 21.9372 17.7114 21.0505 18.0156 20.3541C18.3968 19.4816 19.106 18.7864 19.996 18.4128C20.7064 18.1146 21.611 18.1146 23.4202 18.1146C25.2293 18.1146 26.1339 18.1146 26.8443 18.4128C27.7344 18.7864 28.4436 19.4816 28.8247 20.3541C29.1289 21.0505 29.1289 21.9372 29.1289 23.7106C29.1289 25.4841 29.1289 26.3708 28.8247 27.0672C28.4436 27.9396 27.7344 28.6348 26.8443 29.0084C26.1339 29.3066 25.2293 29.3066 23.4202 29.3066C21.611 29.3066 20.7064 29.3066 19.996 29.0084C19.106 28.6348 18.3968 27.9396 18.0156 27.0672C17.7114 26.3708 17.7114 25.4841 17.7114 23.7106Z"/>
    <path d="M33.577 39.1928C33.577 37.4194 33.577 36.5327 33.8812 35.8363C34.2623 34.9638 34.9715 34.2686 35.8616 33.895C36.572 33.5968 37.4765 33.5968 39.2857 33.5968C41.0949 33.5968 41.9995 33.5968 42.7099 33.895C43.5999 34.2686 44.3091 34.9638 44.6903 35.8363C44.9945 36.5327 44.9945 37.4194 44.9945 39.1928C44.9945 40.9663 44.9945 41.853 44.6903 42.5494C44.3091 43.4218 43.5999 44.117 42.7099 44.4906C41.9995 44.7888 41.0949 44.7888 39.2857 44.7888C37.4765 44.7888 36.572 44.7888 35.8616 44.4906C34.9715 44.117 34.2623 43.4218 33.8812 42.5494C33.577 41.853 33.577 40.9663 33.577 39.1928Z"/>
    <path d="M17.7114 39.1928C17.7114 37.4194 17.7114 36.5327 18.0156 35.8363C18.3968 34.9638 19.106 34.2686 19.996 33.895C20.7064 33.5968 21.611 33.5968 23.4202 33.5968C25.2293 33.5968 26.1339 33.5968 26.8443 33.895C27.7344 34.2686 28.4436 34.9638 28.8247 35.8363C29.1289 36.5327 29.1289 37.4194 29.1289 39.1928C29.1289 40.9663 29.1289 41.853 28.8247 42.5494C28.4436 43.4218 27.7344 44.117 26.8443 44.4906C26.1339 44.7888 25.2293 44.7888 23.4202 44.7888C21.611 44.7888 20.7064 44.7888 19.996 44.4906C19.106 44.117 18.3968 43.4218 18.0156 42.5494C17.7114 41.853 17.7114 40.9663 17.7114 39.1928Z"/>
    <path d="M35.5695 26.7139C34.389 25.5597 33.7988 24.9826 33.5332 24.3358C33.2005 23.5255 33.1992 22.6218 33.5298 21.8123C33.7936 21.1662 34.3824 20.5906 35.5598 19.4395C36.7372 18.2883 37.3259 17.7127 37.9868 17.4548C38.8148 17.1316 39.739 17.1328 40.5679 17.4581C41.2294 17.7177 41.8197 18.2948 43.0002 19.449C44.1807 20.6032 44.771 21.1803 45.0366 21.8271C45.3693 22.6374 45.3705 23.5411 45.04 24.3506C44.7761 24.9966 44.1874 25.5722 43.01 26.7234C41.8325 27.8746 41.2438 28.4501 40.583 28.7081C39.755 29.0313 38.8307 29.0301 38.0019 28.7048C37.3403 28.4451 36.7501 27.868 35.5695 26.7139Z"/>
  </g>
</svg>
