<svg xmlns="http://www.w3.org/2000/svg" viewBox="0 0 100 21" class="design-iconfont">
  <g clip-path="url(#yenz15x1s__clip0_112_8568)">
    <path fill-rule="evenodd" clip-rule="evenodd" d="M12.8864 20.9892C14.9383 20.9575 16.1913 20.8324 17.2173 20.3383C18.5811 19.6815 19.6815 18.5811 20.3383 17.2173C21 15.8433 21 14.0622 21 10.5C21 6.93782 21 5.15674 20.3383 3.78269C19.6815 2.41888 18.5811 1.31848 17.2173 0.661708C15.8433 0 14.0622 0 10.5 0C9.88717 0 9.32706 0 8.81267 0.00336924C8.73902 0.00112849 8.6651 0 8.59091 0V0.00506524C6.2516 0.0257013 4.88594 0.13041 3.78269 0.661708C2.41888 1.31848 1.31848 2.41888 0.661708 3.78269C0 5.15674 0 6.93782 0 10.5C0 14.0622 0 15.8433 0.661708 17.2173C1.31848 18.5811 2.41888 19.6815 3.78269 20.3383C5.15674 21 6.93782 21 10.5 21C11.27 21 11.9568 21 12.5742 20.9933C12.6777 20.9978 12.7818 21 12.8864 21V20.9892ZM8.00531 19.0781C7.41671 19.0676 6.9137 19.0486 6.46899 19.014C5.51872 18.94 4.99563 18.8035 4.61101 18.6183C3.63686 18.1491 2.85087 17.3631 2.38174 16.389C2.19652 16.0044 2.06003 15.4813 1.98604 14.531C1.92451 13.7407 1.91216 12.7663 1.9097 11.4545H5.72727V13.8409C5.72727 15.9084 6.6037 17.7712 8.00531 19.0781ZM12.6086 19.0837C9.83823 18.9393 7.63636 16.6472 7.63636 13.8409V11.4545H19.0903C19.0878 12.7663 19.0755 13.7407 19.014 14.531C18.94 15.4813 18.8035 16.0044 18.6183 16.389C18.1491 17.3631 17.3631 18.1491 16.389 18.6183C16.0044 18.8035 15.4813 18.94 14.531 19.014C13.992 19.0559 13.3674 19.075 12.6086 19.0837ZM1.98604 6.46899C1.92451 7.25929 1.91216 8.23372 1.9097 9.54545H13.8409V7.15909C13.8409 4.32576 11.5965 2.01665 8.78852 1.91274C7.84648 1.91918 7.0992 1.93697 6.46899 1.98604C5.51872 2.06003 4.99563 2.19652 4.61101 2.38174C3.63686 2.85087 2.85087 3.63686 2.38174 4.61101C2.19652 4.99563 2.06003 5.51872 1.98604 6.46899ZM19.0903 9.54545H15.75V7.15909C15.75 5.09757 14.8787 3.23957 13.4842 1.93329C13.8691 1.94468 14.2148 1.96142 14.531 1.98604C15.4813 2.06003 16.0044 2.19652 16.389 2.38174C17.3631 2.85087 18.1491 3.63686 18.6183 4.61101C18.8035 4.99563 18.94 5.51872 19.014 6.46899C19.0755 7.25929 19.0878 8.23372 19.0903 9.54545Z" fill="#0052D9"/>
    <path d="M32.162 13.4355H36.6535V16H29.4196V5.17882H32.162V13.4355ZM42.0928 16.1482C40.8279 16.1482 39.7803 15.7579 38.9502 14.9772C38.1102 14.1866 37.6902 13.2181 37.6902 12.0718C37.6902 10.8562 38.1053 9.84824 38.9354 9.04776C39.7655 8.24729 40.818 7.84706 42.0928 7.84706C43.3676 7.84706 44.4201 8.24729 45.2502 9.04776C46.0803 9.84824 46.4954 10.8562 46.4954 12.0718C46.4954 13.2181 46.0803 14.1866 45.2502 14.9772C44.4102 15.7579 43.3578 16.1482 42.0928 16.1482ZM42.0928 13.732C42.6265 13.732 43.0563 13.5739 43.3825 13.2576C43.7086 12.9414 43.8716 12.5264 43.8716 12.0125C43.8716 11.4788 43.7086 11.0539 43.3825 10.7376C43.0563 10.4214 42.6265 10.2633 42.0928 10.2633C41.5592 10.2633 41.1293 10.4214 40.8032 10.7376C40.477 11.0539 40.314 11.4739 40.314 11.9976C40.314 12.5214 40.477 12.9414 40.8032 13.2576C41.1293 13.5739 41.5592 13.732 42.0928 13.732ZM56.8766 7.99529H59.3966L56.9804 16H54.7569L53.23 11.3454L51.6439 16H49.4204L47.1079 7.99529H49.6576L50.7545 12.9315L52.2072 7.99529H54.3418L55.6907 12.8278L56.8766 7.99529ZM70.174 14.5621C69.6503 15.0859 69.0227 15.4861 68.2914 15.7628C67.5601 16.0395 66.8288 16.1779 66.0975 16.1779C64.3385 16.1384 62.9599 15.6047 61.9618 14.5769C60.9637 13.5393 60.4547 12.2299 60.435 10.6487C60.4646 9.028 60.9884 7.69388 62.0063 6.64635C63.034 5.58894 64.3978 5.04047 66.0975 5.00094C67.7775 5.05035 69.1166 5.56918 70.1147 6.55741L68.7361 8.58824C68.1531 7.94588 67.3131 7.62471 66.2161 7.62471C65.386 7.62471 64.6844 7.89647 64.1112 8.44C63.538 8.98353 63.2514 9.69506 63.2514 10.5746C63.2514 11.5332 63.5084 12.2793 64.0223 12.8129C64.5361 13.3466 65.1983 13.6134 66.0086 13.6134C67.0463 13.6035 67.9208 13.2626 68.6324 12.5906L70.174 14.5621ZM75.7932 16.1482C74.5282 16.1482 73.4807 15.7579 72.6506 14.9772C71.8106 14.1866 71.3906 13.2181 71.3906 12.0718C71.3906 10.8562 71.8056 9.84824 72.6358 9.04776C73.4659 8.24729 74.5184 7.84706 75.7932 7.84706C77.068 7.84706 78.1205 8.24729 78.9506 9.04776C79.7807 9.84824 80.1958 10.8562 80.1958 12.0718C80.1958 13.2181 79.7807 14.1866 78.9506 14.9772C78.1106 15.7579 77.0581 16.1482 75.7932 16.1482ZM75.7932 13.732C76.3268 13.732 76.7567 13.5739 77.0828 13.2576C77.4089 12.9414 77.572 12.5264 77.572 12.0125C77.572 11.4788 77.4089 11.0539 77.0828 10.7376C76.7567 10.4214 76.3268 10.2633 75.7932 10.2633C75.2595 10.2633 74.8296 10.4214 74.5035 10.7376C74.1774 11.0539 74.0144 11.4739 74.0144 11.9976C74.0144 12.5214 74.1774 12.9414 74.5035 13.2576C74.8296 13.5739 75.2595 13.732 75.7932 13.732ZM86.9824 4.28941H89.621V16H87.1751L86.9972 15.4219C86.5525 15.8369 86.0189 16.0741 85.3963 16.1334C85.2975 16.1433 85.1937 16.1482 85.085 16.1482C83.9584 16.1482 83.0591 15.7727 82.3871 15.0216C81.7151 14.2706 81.3791 13.2576 81.3791 11.9828C81.3791 10.7475 81.7497 9.74941 82.4909 8.98847C83.232 8.22753 84.1412 7.84706 85.2184 7.84706C85.6137 7.84706 85.9695 7.89153 86.2857 7.98047C86.5426 8.05953 86.7749 8.16329 86.9824 8.29176V4.28941ZM85.8262 14.0729C86.0139 14.0729 86.2116 14.0334 86.4191 13.9544C86.6266 13.8654 86.8144 13.7567 86.9824 13.6282V10.3226C86.7946 10.1941 86.592 10.1052 86.3746 10.0558C86.1869 10.0064 85.9892 9.98165 85.7817 9.98165C85.2678 9.98165 84.8379 10.1595 84.492 10.5153C84.1462 10.8711 83.9732 11.3602 83.9732 11.9828C83.9732 12.6449 84.1412 13.1588 84.4772 13.5245C84.8132 13.8901 85.2629 14.0729 85.8262 14.0729ZM93.8032 12.8278C93.8724 13.2231 94.075 13.5195 94.411 13.7172C94.7371 13.9148 95.1324 14.0136 95.5968 14.0136C95.9921 14.0136 96.3874 13.9395 96.7827 13.7913C97.178 13.6431 97.5041 13.4405 97.7611 13.1835L99.2138 14.6362C98.6604 15.2193 98.0921 15.6195 97.5091 15.8369C96.9161 16.0445 96.254 16.1482 95.5227 16.1482C94.2479 16.1482 93.2053 15.7875 92.395 15.0661C91.5846 14.3447 91.1794 13.3515 91.1794 12.0866C91.1794 10.8414 91.5451 9.82353 92.2764 9.03294C92.9978 8.24235 94.0058 7.84706 95.3004 7.84706C96.5851 7.84706 97.5684 8.20776 98.2502 8.92918C98.9222 9.64071 99.2582 10.5894 99.2582 11.7753C99.2385 12.1311 99.2187 12.4819 99.199 12.8278H93.8032ZM95.3004 9.96682C94.9545 9.96682 94.6432 10.0656 94.3665 10.2633C94.0898 10.4511 93.902 10.7376 93.8032 11.1231H96.7086C96.679 10.7673 96.5208 10.4856 96.2342 10.2781C95.9378 10.0706 95.6265 9.96682 95.3004 9.96682Z"/>
  </g>
  <defs>
    <clipPath id="yenz15x1s__clip0_112_8568">
      <path fill="#fff" d="M0 0H100V21H0z"/>
    </clipPath>
  </defs>
</svg>
