<svg xmlns="http://www.w3.org/2000/svg" fill="none" viewBox="0 0 17 17" class="design-iconfont">
  <path d="M6.375 12.75V6.375H7.4375V12.75H6.375Z" fill="#E34D59"/>
  <path d="M9.5625 6.375V12.75H10.625V6.375H9.5625Z" fill="#E34D59"/>
  <path d="M11.1562 3.1875H14.875V4.25H13.8125V14.875C13.8125 15.4618 13.3368 15.9375 12.75 15.9375H4.25C3.6632 15.9375 3.1875 15.4618 3.1875 14.875V4.25H2.125V3.1875H5.84375L5.84375 1.9125C5.84375 1.44306 6.22431 1.0625 6.69375 1.0625H10.3062C10.7757 1.0625 11.1562 1.44306 11.1562 1.9125V3.1875ZM6.90625 3.1875H10.0938L10.0937 2.125L6.90625 2.125V3.1875ZM4.25 4.25V14.875H12.75V4.25H4.25Z" fill="#E34D59"/>
</svg>
