<svg width="17" height="17" viewBox="0 0 17 17" xmlns="http://www.w3.org/2000/svg">
<path fill-rule="evenodd" clip-rule="evenodd" d="M12.2188 2.65625C12.2188 2.36285 11.9809 2.125 11.6875 2.125H5.3125C5.0191 2.125 4.78125 2.36285 4.78125 2.65625V14.3438C4.78125 14.6372 5.0191 14.875 5.3125 14.875H11.6875C11.9809 14.875 12.2188 14.6372 12.2188 14.3438V2.65625ZM11.6875 1.0625C12.5677 1.0625 13.2812 1.77605 13.2812 2.65625V14.3438C13.2812 15.224 12.5677 15.9375 11.6875 15.9375H5.3125C4.4323 15.9375 3.71875 15.224 3.71875 14.3438V2.65625C3.71875 1.77605 4.4323 1.0625 5.3125 1.0625H11.6875Z"/>
<path d="M8.5 4.78125C8.9401 4.78125 9.29688 4.42448 9.29688 3.98438C9.29688 3.54427 8.9401 3.1875 8.5 3.1875C8.0599 3.1875 7.70312 3.54427 7.70312 3.98438C7.70312 4.42448 8.0599 4.78125 8.5 4.78125Z"/>
</svg>
