<svg xmlns="http://www.w3.org/2000/svg" fill="none" viewBox="0 0 17 17" class="design-iconfont">
  <path d="M11.5596 8.49988C11.5596 10.1898 10.1897 11.5598 8.49974 11.5598C6.80975 11.5598 5.43987 10.1898 5.43987 8.49988C5.43987 6.81002 6.80975 5.44007 8.49974 5.44007C10.1897 5.44007 11.5596 6.81002 11.5596 8.49988ZM10.4971 8.49988C10.4971 7.39678 9.60271 6.50257 8.49974 6.50257C7.39651 6.50257 6.50237 7.39678 6.50237 8.49988C6.50237 9.60297 7.39651 10.4973 8.49974 10.4973C9.60271 10.4973 10.4971 9.60297 10.4971 8.49988Z" fill="#303030"/>
  <path d="M1.18675 8.74423C2.61526 11.5492 5.42041 13.2811 8.50519 13.2811C11.5796 13.2811 14.3847 11.5492 15.8132 8.74423L15.9375 8.49988L15.8132 8.25552C14.3847 5.46114 11.5796 3.71863 8.50519 3.71863C5.42041 3.71863 2.61526 5.46114 1.18675 8.25552L1.0625 8.49988L1.18675 8.74423ZM8.50519 12.2186C5.89667 12.2186 3.52602 10.8055 2.24251 8.49988C3.52602 6.19427 5.89667 4.78113 8.50519 4.78113C11.1033 4.78113 13.474 6.19427 14.7679 8.49988C13.4841 10.8055 11.1033 12.2186 8.50519 12.2186Z" fill="#303030"/>
</svg>
