<svg width="17" height="17" viewBox="0 0 17 17" xmlns="http://www.w3.org/2000/svg">
<path d="M14.6858 5.25271L11.7459 2.31349C11.5428 2.11104 11.2733 2 10.989 2H3.08333C2.48615 2 2 2.48615 2 3.08333V13.9167C2 14.5139 2.48615 15 3.08333 15H13.9167C14.5139 15 15 14.5139 15 13.9167V6.01578C15.0007 5.73208 14.8862 5.45448 14.6858 5.25271ZM11.2083 13.9167H5.79167V10.125H11.2083V13.9167ZM13.9167 13.9167H12.2917V10.125C12.2917 9.52781 11.8055 9.04167 11.2083 9.04167H5.79167C5.19448 9.04167 4.70833 9.52781 4.70833 10.125V13.9167H3.08333V3.08333L10.9808 3.08063L13.9167 6.01646V13.9173V13.9167Z"/>
<path d="M10.125 4.16667H6.33333C6.03406 4.16667 5.79167 4.40906 5.79167 4.70833C5.79167 5.0076 6.03406 5.25 6.33333 5.25H10.125C10.4243 5.25 10.6667 5.0076 10.6667 4.70833C10.6667 4.40906 10.4243 4.16667 10.125 4.16667Z"/>
</svg>
