<svg width="17" height="17" viewBox="0 0 17 17" xmlns="http://www.w3.org/2000/svg">
<path d="M9.90395 3.77343C10.6529 3.65918 11.4182 3.72454 12.137 3.96411C12.8557 4.20368 13.5072 4.61062 14.0378 5.15138C14.5684 5.69214 14.9629 6.35125 15.1888 7.07439C15.4147 7.79752 15.4655 8.56399 15.337 9.31062C15.2086 10.0573 14.9046 10.7627 14.45 11.3688C14.274 11.6035 14.3215 11.9365 14.5562 12.1125C14.791 12.2885 15.124 12.241 15.3 12.0063C15.8556 11.2655 16.2272 10.4033 16.3842 9.49076C16.5411 8.57821 16.479 7.64142 16.2029 6.75758C15.9268 5.87375 15.4447 5.06817 14.7962 4.40724C14.1477 3.74631 13.3514 3.24894 12.473 2.95613C11.5945 2.66332 10.6591 2.58344 9.74371 2.72309C8.82835 2.86273 7.95927 3.21789 7.2081 3.7593C6.45693 4.30072 5.84516 5.01289 5.42322 5.83712L5.39775 5.88747C5.19365 5.85832 4.98754 5.84368 4.78105 5.84375C3.65395 5.8438 2.57303 6.29156 1.77605 7.08855C0.979017 7.88558 0.53125 8.96658 0.53125 10.0938C0.53125 11.2209 0.979017 12.3019 1.77605 13.099C2.57308 13.896 3.65408 14.3438 4.78125 14.3438H6.375C6.6684 14.3438 6.90625 14.1059 6.90625 13.8125C6.90625 13.5191 6.6684 13.2812 6.375 13.2812H4.78125C3.93587 13.2812 3.12512 12.9454 2.52735 12.3477C1.92957 11.7499 1.59375 10.9391 1.59375 10.0938C1.59375 9.24837 1.92957 8.43762 2.52735 7.83985C3.12512 7.24208 3.93607 6.90625 4.78145 6.90625C4.85466 6.90622 4.92779 6.90864 5.00073 6.91349C4.8556 7.428 4.78125 7.96176 4.78125 8.5C4.78125 8.7934 5.0191 9.03125 5.3125 9.03125C5.6059 9.03125 5.84375 8.7934 5.84375 8.5C5.84375 7.7424 6.02378 6.99565 6.369 6.32128C6.71423 5.64691 7.21476 5.06422 7.82935 4.62125C8.44395 4.17827 9.15501 3.88769 9.90395 3.77343Z" />
<path d="M10.2546 7.99353C10.3332 8.0184 10.4072 8.06201 10.4695 8.12435L12.7207 10.3755C12.9281 10.583 12.9281 10.9194 12.7207 11.1268C12.5132 11.3343 12.1768 11.3343 11.9694 11.1268L10.625 9.78245V13.8125C10.625 14.1059 10.3872 14.3438 10.0938 14.3438C9.80035 14.3438 9.5625 14.1059 9.5625 13.8125V9.78265L8.21833 11.1268C8.01087 11.3343 7.6745 11.3343 7.46703 11.1268C7.25957 10.9194 7.25957 10.583 7.46703 10.3755L9.71187 8.13069C9.80846 8.03083 9.94385 7.96875 10.0938 7.96875L10.1102 7.969C10.159 7.97049 10.2076 7.97867 10.2546 7.99353Z"/>
</svg>
