<svg xmlns="http://www.w3.org/2000/svg" fill="none" viewBox="0 0 17 18" class="design-iconfont">
  <path fill-rule="evenodd" clip-rule="evenodd" d="M4.65812 6.00367C4.84595 6.22907 4.81549 6.56406 4.5901 6.75189L1.89234 9.00002L4.5901 11.2482C4.81549 11.436 4.84595 11.771 4.65812 11.9964C4.47029 12.2218 4.1353 12.2522 3.9099 12.0644L0.722402 9.40814C0.601281 9.3072 0.53125 9.15769 0.53125 9.00002C0.53125 8.84236 0.601281 8.69284 0.722402 8.5919L3.9099 5.93565C4.1353 5.74782 4.47029 5.77828 4.65812 6.00367Z" fill="#303030"/>
  <path fill-rule="evenodd" clip-rule="evenodd" d="M12.3419 6.00367C12.5297 5.77828 12.8647 5.74782 13.0901 5.93565L16.2776 8.5919C16.3987 8.69284 16.4688 8.84236 16.4688 9.00002C16.4688 9.15769 16.3987 9.3072 16.2776 9.40814L13.0901 12.0644C12.8647 12.2522 12.5297 12.2218 12.3419 11.9964C12.1541 11.771 12.1845 11.436 12.4099 11.2482L15.1077 9.00002L12.4099 6.75189C12.1845 6.56406 12.1541 6.22907 12.3419 6.00367Z" fill="#303030"/>
  <path fill-rule="evenodd" clip-rule="evenodd" d="M10.8066 2.65701C11.0823 2.75728 11.2245 3.06209 11.1243 3.33782L6.87428 15.0253C6.77401 15.3011 6.4692 15.4433 6.19346 15.343C5.91773 15.2428 5.77548 14.938 5.87575 14.6622L10.1257 2.97472C10.226 2.69898 10.5308 2.55674 10.8066 2.65701Z" fill="#303030"/>
</svg>
