<svg xmlns="http://www.w3.org/2000/svg" fill="none" viewBox="0 0 17 18" class="design-iconfont">
  <path fill-rule="evenodd" clip-rule="evenodd" d="M7.4375 3.15625C7.7309 3.15625 7.96875 3.3941 7.96875 3.6875V14.3125C7.96875 14.6059 7.7309 14.8438 7.4375 14.8438C7.1441 14.8438 6.90625 14.6059 6.90625 14.3125V3.6875C6.90625 3.3941 7.1441 3.15625 7.4375 3.15625Z" fill="#303030"/>
  <path fill-rule="evenodd" clip-rule="evenodd" d="M9.03125 5.28125C9.03125 4.98785 9.2691 4.75 9.5625 4.75H15.4062C15.688 4.75 15.9583 4.86194 16.1576 5.0612C16.3568 5.26046 16.4688 5.53071 16.4688 5.8125V12.1875C16.4688 12.4693 16.3568 12.7395 16.1576 12.9388C15.9583 13.1381 15.688 13.25 15.4062 13.25H9.5625C9.2691 13.25 9.03125 13.0122 9.03125 12.7188C9.03125 12.4253 9.2691 12.1875 9.5625 12.1875H15.4062V5.8125H9.5625C9.2691 5.8125 9.03125 5.57465 9.03125 5.28125Z" fill="#303030"/>
  <path fill-rule="evenodd" clip-rule="evenodd" d="M0.842449 5.0612C1.04171 4.86194 1.31196 4.75 1.59375 4.75H7.4375C7.7309 4.75 7.96875 4.98785 7.96875 5.28125C7.96875 5.57465 7.7309 5.8125 7.4375 5.8125H1.59375V12.1875H7.4375C7.7309 12.1875 7.96875 12.4253 7.96875 12.7188C7.96875 13.0122 7.7309 13.25 7.4375 13.25H1.59375C1.31196 13.25 1.04171 13.1381 0.842449 12.9388C0.643191 12.7395 0.53125 12.4693 0.53125 12.1875V5.8125C0.53125 5.53071 0.643192 5.26046 0.842449 5.0612Z" fill="#303030"/>
  <path fill-rule="evenodd" clip-rule="evenodd" d="M2.78906 7.9375C2.78906 7.6441 3.02691 7.40625 3.32031 7.40625H5.17969C5.47309 7.40625 5.71094 7.6441 5.71094 7.9375C5.71094 8.2309 5.47309 8.46875 5.17969 8.46875H3.32031C3.02691 8.46875 2.78906 8.2309 2.78906 7.9375Z" fill="#303030"/>
  <path fill-rule="evenodd" clip-rule="evenodd" d="M4.25 7.40625C4.5434 7.40625 4.78125 7.6441 4.78125 7.9375V10.3281C4.78125 10.6215 4.5434 10.8594 4.25 10.8594C3.9566 10.8594 3.71875 10.6215 3.71875 10.3281V7.9375C3.71875 7.6441 3.9566 7.40625 4.25 7.40625Z" fill="#303030"/>
</svg>
