<svg xmlns="http://www.w3.org/2000/svg" viewBox="0 0 17 18" class="design-iconfont">
  <path fill-rule="evenodd" clip-rule="evenodd" d="M8.5 6.07812C6.88629 6.07812 5.57812 7.38629 5.57812 9C5.57812 10.6137 6.88629 11.9219 8.5 11.9219C10.1137 11.9219 11.4219 10.6137 11.4219 9C11.4219 7.38629 10.1137 6.07812 8.5 6.07812ZM4.51562 9C4.51562 6.79949 6.29949 5.01562 8.5 5.01562C10.7005 5.01562 12.4844 6.79949 12.4844 9C12.4844 11.2005 10.7005 12.9844 8.5 12.9844C6.29949 12.9844 4.51562 11.2005 4.51562 9Z"/>
  <path fill-rule="evenodd" clip-rule="evenodd" d="M0 9C0 8.7066 0.237849 8.46875 0.53125 8.46875H5.04688C5.34028 8.46875 5.57812 8.7066 5.57812 9C5.57812 9.2934 5.34028 9.53125 5.04688 9.53125H0.53125C0.237849 9.53125 0 9.2934 0 9Z"/>
  <path fill-rule="evenodd" clip-rule="evenodd" d="M11.4219 9C11.4219 8.7066 11.6597 8.46875 11.9531 8.46875H16.4688C16.7622 8.46875 17 8.7066 17 9C17 9.2934 16.7622 9.53125 16.4688 9.53125H11.9531C11.6597 9.53125 11.4219 9.2934 11.4219 9Z"/>
</svg>
