<svg xmlns="http://www.w3.org/2000/svg" fill="none" viewBox="0 0 17 18" class="design-iconfont">
  <path fill-rule="evenodd" clip-rule="evenodd" d="M2.125 3.6875C2.125 3.1007 2.6007 2.625 3.1875 2.625H13.8125C14.3993 2.625 14.875 3.1007 14.875 3.6875V14.3125C14.875 14.8993 14.3993 15.375 13.8125 15.375H3.1875C2.6007 15.375 2.125 14.8993 2.125 14.3125V3.6875ZM13.8125 3.6875H3.1875V14.3125H13.8125V3.6875Z" fill="#303030"/>
  <path fill-rule="evenodd" clip-rule="evenodd" d="M5.87315 7.59128C6.08062 7.38381 6.41699 7.38381 6.62445 7.59128L8.49997 9.4668L10.3755 7.59128C10.583 7.38381 10.9193 7.38381 11.1268 7.59128C11.3343 7.79874 11.3343 8.13511 11.1268 8.34258L8.87562 10.5938C8.66816 10.8012 8.33179 10.8012 8.12432 10.5938L5.87315 8.34258C5.66569 8.13511 5.66569 7.79874 5.87315 7.59128Z" fill="#303030"/>
</svg>
