<svg xmlns="http://www.w3.org/2000/svg" viewBox="0 0 17 18" class="design-iconfont">
  <path fill-rule="evenodd" clip-rule="evenodd" d="M10.2038 5.70247C10.4112 5.90994 10.4112 6.24631 10.2038 6.45378L4.36003 12.2975C4.15256 12.505 3.81619 12.505 3.60872 12.2975L0.68685 9.37565C0.479383 9.16818 0.479383 8.83182 0.68685 8.62435C0.894316 8.41688 1.23068 8.41688 1.43815 8.62435L3.98438 11.1706L9.45248 5.70247C9.65994 5.49501 9.99631 5.49501 10.2038 5.70247Z"/>
  <path fill-rule="evenodd" clip-rule="evenodd" d="M16.3133 5.70247C16.5207 5.90994 16.5207 6.24631 16.3133 6.45378L10.4695 12.2975C10.262 12.505 9.92567 12.505 9.7182 12.2975L8.1643 10.7436C7.95683 10.5362 7.95683 10.1998 8.1643 9.99232C8.37176 9.78485 8.70813 9.78485 8.9156 9.99232L10.0939 11.1706L15.562 5.70247C15.7694 5.49501 16.1058 5.49501 16.3133 5.70247Z"/>
</svg>
