<svg xmlns="http://www.w3.org/2000/svg" viewBox="0 0 17 18" class="design-iconfont">
  <path fill-rule="evenodd" clip-rule="evenodd" d="M13.6569 3.8431C13.8644 4.05057 13.8644 4.38693 13.6569 4.5944L4.0944 14.1569C3.88693 14.3644 3.55057 14.3644 3.3431 14.1569C3.13563 13.9494 3.13563 13.6131 3.3431 13.4056L12.9056 3.8431C13.1131 3.63563 13.4494 3.63563 13.6569 3.8431Z"/>
  <path fill-rule="evenodd" clip-rule="evenodd" d="M1.59375 5.28125C1.59375 4.98785 1.8316 4.75 2.125 4.75H7.4375C7.7309 4.75 7.96875 4.98785 7.96875 5.28125C7.96875 5.57465 7.7309 5.8125 7.4375 5.8125H2.125C1.8316 5.8125 1.59375 5.57465 1.59375 5.28125Z"/>
  <path fill-rule="evenodd" clip-rule="evenodd" d="M4.78125 2.09375C5.07465 2.09375 5.3125 2.3316 5.3125 2.625V7.9375C5.3125 8.2309 5.07465 8.46875 4.78125 8.46875C4.48785 8.46875 4.25 8.2309 4.25 7.9375V2.625C4.25 2.3316 4.48785 2.09375 4.78125 2.09375Z"/>
  <path fill-rule="evenodd" clip-rule="evenodd" d="M9.03125 12.7188C9.03125 12.4253 9.2691 12.1875 9.5625 12.1875H14.875C15.1684 12.1875 15.4062 12.4253 15.4062 12.7188C15.4062 13.0122 15.1684 13.25 14.875 13.25H9.5625C9.2691 13.25 9.03125 13.0122 9.03125 12.7188Z"/>
</svg>
