<svg xmlns="http://www.w3.org/2000/svg" fill="none" viewBox="0 0 17 18" class="design-iconfont">
  <path fill-rule="evenodd" clip-rule="evenodd" d="M2.125 3.6875C2.125 3.1007 2.6007 2.625 3.1875 2.625H13.8125C14.3993 2.625 14.875 3.1007 14.875 3.6875V14.3125C14.875 14.8993 14.3993 15.375 13.8125 15.375H3.1875C2.6007 15.375 2.125 14.8993 2.125 14.3125V3.6875ZM13.8125 3.6875H3.1875V14.3125H13.8125V3.6875Z" fill="#303030"/>
  <path fill-rule="evenodd" clip-rule="evenodd" d="M11.6875 1.5625C11.9809 1.5625 12.2188 1.80035 12.2188 2.09375V4.21875C12.2188 4.51215 11.9809 4.75 11.6875 4.75C11.3941 4.75 11.1562 4.51215 11.1562 4.21875V2.09375C11.1562 1.80035 11.3941 1.5625 11.6875 1.5625Z" fill="#303030"/>
  <path fill-rule="evenodd" clip-rule="evenodd" d="M5.3125 1.5625C5.6059 1.5625 5.84375 1.80035 5.84375 2.09375V4.21875C5.84375 4.51215 5.6059 4.75 5.3125 4.75C5.0191 4.75 4.78125 4.51215 4.78125 4.21875V2.09375C4.78125 1.80035 5.0191 1.5625 5.3125 1.5625Z" fill="#303030"/>
  <path fill-rule="evenodd" clip-rule="evenodd" d="M2.125 6.34375C2.125 6.05035 2.36285 5.8125 2.65625 5.8125H14.3438C14.6372 5.8125 14.875 6.05035 14.875 6.34375C14.875 6.63715 14.6372 6.875 14.3438 6.875H2.65625C2.36285 6.875 2.125 6.63715 2.125 6.34375Z" fill="#303030"/>
  <path fill-rule="evenodd" clip-rule="evenodd" d="M5.57812 9C5.57812 8.7066 5.81597 8.46875 6.10938 8.46875H7.96875C8.17297 8.46875 8.3591 8.58581 8.44757 8.76987C8.53603 8.95393 8.51116 9.1724 8.38359 9.33187L7.79559 10.0669C7.96786 10.1824 8.11638 10.3307 8.23235 10.5039C8.37829 10.7218 8.46818 10.9724 8.49405 11.2334C8.51992 11.4944 8.48097 11.7578 8.38065 12.0002C8.28034 12.2425 8.12176 12.4564 7.91899 12.6227C7.71622 12.7891 7.47552 12.9029 7.21824 12.9539C6.96097 13.0049 6.69507 12.9917 6.44414 12.9154C6.19321 12.839 5.965 12.7019 5.77975 12.5162C5.57254 12.3085 5.57295 11.9721 5.78066 11.7649C5.98838 11.5577 6.32475 11.5581 6.53196 11.7658C6.59371 11.8277 6.66978 11.8734 6.75343 11.8989C6.83707 11.9243 6.9257 11.9287 7.01146 11.9117C7.09722 11.8947 7.17745 11.8568 7.24504 11.8013C7.31263 11.7459 7.36549 11.6746 7.39893 11.5938C7.43237 11.513 7.44535 11.4252 7.43673 11.3382C7.4281 11.2512 7.39814 11.1677 7.3495 11.095C7.30085 11.0224 7.23503 10.9629 7.15787 10.9218C7.08071 10.8807 6.99459 10.8592 6.90716 10.8594C6.70278 10.8597 6.51632 10.7428 6.42763 10.5587C6.33894 10.3745 6.36374 10.1558 6.49141 9.99626L6.86342 9.53125H6.10938C5.81597 9.53125 5.57812 9.2934 5.57812 9Z" fill="#303030"/>
  <path fill-rule="evenodd" clip-rule="evenodd" d="M10.8626 8.52484C11.0426 8.61483 11.1563 8.79878 11.1563 9V12.4531C11.1563 12.7465 10.9184 12.9844 10.625 12.9844C10.3316 12.9844 10.0938 12.7465 10.0938 12.4531V10.0625L9.88128 10.2219C9.64656 10.3979 9.31357 10.3503 9.13753 10.1156C8.96149 9.88091 9.00906 9.54792 9.24378 9.37188L10.3063 8.575C10.4673 8.45427 10.6826 8.43485 10.8626 8.52484Z" fill="#303030"/>
</svg>
