<svg xmlns="http://www.w3.org/2000/svg" viewBox="0 0 17 18" class="design-iconfont">
  <path fill-rule="evenodd" clip-rule="evenodd" d="M8.49995 5.28125C8.79336 5.28125 9.0312 5.5191 9.0312 5.8125V9C9.0312 9.2934 8.79336 9.53125 8.49995 9.53125C8.20655 9.53125 7.9687 9.2934 7.9687 9V5.8125C7.9687 5.5191 8.20655 5.28125 8.49995 5.28125Z"/>
  <path fill-rule="evenodd" clip-rule="evenodd" d="M8.03988 8.73448C8.1865 8.48034 8.51138 8.39318 8.76552 8.5398L11.528 10.1335C11.7822 10.2802 11.8693 10.605 11.7227 10.8592C11.5761 11.1133 11.2512 11.2005 10.9971 11.0539L8.23457 9.46012C7.98043 9.3135 7.89326 8.98862 8.03988 8.73448Z"/>
  <path fill-rule="evenodd" clip-rule="evenodd" d="M14.8882 3.93315C15.1816 3.93315 15.4194 4.171 15.4194 4.4644V7.12065C15.4194 7.41405 15.1816 7.6519 14.8882 7.6519H12.2319C11.9385 7.6519 11.7007 7.41405 11.7007 7.12065C11.7007 6.82725 11.9385 6.5894 12.2319 6.5894H14.3569V4.4644C14.3569 4.171 14.5948 3.93315 14.8882 3.93315Z"/>
  <path fill-rule="evenodd" clip-rule="evenodd" d="M9.53459 3.7899C8.50395 3.58456 7.43556 3.68952 6.46458 4.09148C5.49359 4.49344 4.66364 5.17436 4.0797 6.04809C3.49576 6.92182 3.18408 7.9491 3.18408 9C3.18408 10.0509 3.49576 11.0782 4.0797 11.9519C4.66364 12.8257 5.49359 13.5066 6.46458 13.9085C7.43556 14.3105 8.50395 14.4154 9.53459 14.2101C10.5652 14.0048 11.5118 13.4984 12.2546 12.755C12.462 12.5474 12.7984 12.5473 13.0059 12.7547C13.2135 12.962 13.2136 13.2984 13.0062 13.506C12.1149 14.398 10.979 15.0057 9.7422 15.2521C8.50543 15.4985 7.22336 15.3726 6.05818 14.8902C4.89299 14.4079 3.89705 13.5908 3.19632 12.5423C2.4956 11.4938 2.12158 10.2611 2.12158 9C2.12158 7.73893 2.4956 6.50618 3.19632 5.4577C3.89705 4.40923 4.89299 3.59213 6.05818 3.10977C7.22336 2.62742 8.50543 2.50148 9.7422 2.74788C10.9788 2.99425 12.1146 3.60183 13.0059 4.49375L15.2633 6.7445C15.4711 6.95166 15.4716 7.28803 15.2644 7.4958C15.0573 7.70357 14.7209 7.70407 14.5131 7.49691L12.2546 5.24503C11.5118 4.50163 10.5652 3.99523 9.53459 3.7899Z"/>
</svg>
