<svg xmlns="http://www.w3.org/2000/svg" fill="none" viewBox="0 0 17 18" class="design-iconfont">
  <path fill-rule="evenodd" clip-rule="evenodd" d="M2.39062 3.95312C2.39062 3.36632 2.86632 2.89062 3.45312 2.89062H13.5469C14.1337 2.89062 14.6094 3.36632 14.6094 3.95312V14.0469C14.6094 14.6337 14.1337 15.1094 13.5469 15.1094H3.45312C2.86632 15.1094 2.39062 14.6337 2.39062 14.0469V3.95312ZM13.5469 3.95312H3.45312V14.0469H13.5469V3.95312Z" fill="#303030"/>
  <path fill-rule="evenodd" clip-rule="evenodd" d="M2.39062 9C2.39062 8.7066 2.62847 8.46875 2.92188 8.46875H14.0781C14.3715 8.46875 14.6094 8.7066 14.6094 9C14.6094 9.2934 14.3715 9.53125 14.0781 9.53125H2.92188C2.62847 9.53125 2.39062 9.2934 2.39062 9Z" fill="#303030"/>
  <path fill-rule="evenodd" clip-rule="evenodd" d="M5.3125 8.46875C5.6059 8.46875 5.84375 8.7066 5.84375 9V14.5781C5.84375 14.8715 5.6059 15.1094 5.3125 15.1094C5.0191 15.1094 4.78125 14.8715 4.78125 14.5781V9C4.78125 8.7066 5.0191 8.46875 5.3125 8.46875Z" fill="#303030"/>
  <path fill-rule="evenodd" clip-rule="evenodd" d="M7.4375 8.46875C7.7309 8.46875 7.96875 8.7066 7.96875 9V14.5781C7.96875 14.8715 7.7309 15.1094 7.4375 15.1094C7.1441 15.1094 6.90625 14.8715 6.90625 14.5781V9C6.90625 8.7066 7.1441 8.46875 7.4375 8.46875Z" fill="#303030"/>
  <path fill-rule="evenodd" clip-rule="evenodd" d="M9.5625 8.46875C9.8559 8.46875 10.0938 8.7066 10.0938 9V14.5781C10.0938 14.8715 9.8559 15.1094 9.5625 15.1094C9.2691 15.1094 9.03125 14.8715 9.03125 14.5781V9C9.03125 8.7066 9.2691 8.46875 9.5625 8.46875Z" fill="#303030"/>
  <path fill-rule="evenodd" clip-rule="evenodd" d="M11.6875 8.46875C11.9809 8.46875 12.2188 8.7066 12.2188 9V14.5781C12.2188 14.8715 11.9809 15.1094 11.6875 15.1094C11.3941 15.1094 11.1562 14.8715 11.1562 14.5781V9C11.1562 8.7066 11.3941 8.46875 11.6875 8.46875Z" fill="#303030"/>
</svg>
