<svg xmlns="http://www.w3.org/2000/svg" viewBox="0 0 17 18" class="design-iconfont">
  <path fill-rule="evenodd" clip-rule="evenodd" d="M8.5 11.6562C9.96701 11.6562 11.1562 10.467 11.1562 9C11.1562 7.53299 9.96701 6.34375 8.5 6.34375C7.03299 6.34375 5.84375 7.53299 5.84375 9C5.84375 10.467 7.03299 11.6562 8.5 11.6562ZM8.5 12.7188C10.5538 12.7188 12.2188 11.0538 12.2188 9C12.2188 6.94619 10.5538 5.28125 8.5 5.28125C6.44619 5.28125 4.78125 6.94619 4.78125 9C4.78125 11.0538 6.44619 12.7188 8.5 12.7188Z"/>
  <path fill-rule="evenodd" clip-rule="evenodd" d="M8.5 14.3125C11.434 14.3125 13.8125 11.934 13.8125 9C13.8125 6.06599 11.434 3.6875 8.5 3.6875C5.56599 3.6875 3.1875 6.06599 3.1875 9C3.1875 11.934 5.56599 14.3125 8.5 14.3125ZM8.5 15.375C12.0208 15.375 14.875 12.5208 14.875 9C14.875 5.47918 12.0208 2.625 8.5 2.625C4.97918 2.625 2.125 5.47918 2.125 9C2.125 12.5208 4.97918 15.375 8.5 15.375Z"/>
</svg>
