<svg xmlns="http://www.w3.org/2000/svg" viewBox="0 0 17 18" class="design-iconfont">
  <path fill-rule="evenodd" clip-rule="evenodd" d="M2.125 3.6875C2.125 3.1007 2.6007 2.625 3.1875 2.625H13.8125C14.3993 2.625 14.875 3.1007 14.875 3.6875V14.3125C14.875 14.8993 14.3993 15.375 13.8125 15.375H3.1875C2.6007 15.375 2.125 14.8993 2.125 14.3125V3.6875ZM13.8125 3.6875H3.1875V14.3125H13.8125V3.6875Z"/>
  <path fill-rule="evenodd" clip-rule="evenodd" d="M11.6875 1.5625C11.9809 1.5625 12.2188 1.80035 12.2188 2.09375V4.21875C12.2188 4.51215 11.9809 4.75 11.6875 4.75C11.3941 4.75 11.1562 4.51215 11.1562 4.21875V2.09375C11.1562 1.80035 11.3941 1.5625 11.6875 1.5625Z"/>
  <path fill-rule="evenodd" clip-rule="evenodd" d="M5.3125 1.5625C5.6059 1.5625 5.84375 1.80035 5.84375 2.09375V4.21875C5.84375 4.51215 5.6059 4.75 5.3125 4.75C5.0191 4.75 4.78125 4.51215 4.78125 4.21875V2.09375C4.78125 1.80035 5.0191 1.5625 5.3125 1.5625Z"/>
  <path fill-rule="evenodd" clip-rule="evenodd" d="M2.125 6.34375C2.125 6.05035 2.36285 5.8125 2.65625 5.8125H14.3438C14.6372 5.8125 14.875 6.05035 14.875 6.34375C14.875 6.63715 14.6372 6.875 14.3438 6.875H2.65625C2.36285 6.875 2.125 6.63715 2.125 6.34375Z"/>
  <path d="M4.78125 8.46875H12.21875V9.53125H4.78125z"/>
  <path d="M4.78125 11.125H10.625V12.1875H4.78125z"/>
</svg>
