<svg xmlns="http://www.w3.org/2000/svg" viewBox="0 0 17 18" class="design-iconfont">
  <path fill-rule="evenodd" clip-rule="evenodd" d="M10.625 7.40625H6.375C5.4948 7.40625 4.78125 8.1198 4.78125 9V13.7812C4.78125 14.6615 5.4948 15.375 6.375 15.375H14.3438C15.224 15.375 15.9375 14.6615 15.9375 13.7812V9C15.9375 8.1198 15.224 7.40625 14.3438 7.40625H12.75V8.46875H14.3438C14.6372 8.46875 14.875 8.7066 14.875 9V13.7812C14.875 14.0747 14.6372 14.3125 14.3438 14.3125H6.375C6.0816 14.3125 5.84375 14.0747 5.84375 13.7812V9C5.84375 8.7066 6.0816 8.46875 6.375 8.46875H10.625V7.40625Z"/>
  <path fill-rule="evenodd" clip-rule="evenodd" d="M2.65625 2.625C1.77605 2.625 1.0625 3.33855 1.0625 4.21875V9C1.0625 9.8802 1.77605 10.5938 2.65625 10.5938H4.25V9.53125H2.65625C2.36285 9.53125 2.125 9.2934 2.125 9V4.21875C2.125 3.92535 2.36285 3.6875 2.65625 3.6875H10.625C10.9184 3.6875 11.1562 3.92535 11.1562 4.21875V9C11.1562 9.2934 10.9184 9.53125 10.625 9.53125H6.375V10.5938H10.625C11.5052 10.5938 12.2188 9.8802 12.2188 9V4.21875C12.2188 3.33855 11.5052 2.625 10.625 2.625H2.65625Z"/>
</svg>
