<svg xmlns="http://www.w3.org/2000/svg" fill="none" viewBox="0 0 17 18" class="design-iconfont">
  <path fill-rule="evenodd" clip-rule="evenodd" d="M2.96745 2.40495C3.16671 2.20569 3.43696 2.09375 3.71875 2.09375H10.0938C10.2346 2.09375 10.3698 2.14972 10.4694 2.24935L14.1882 5.9681C14.2878 6.06773 14.3438 6.20285 14.3438 6.34375V14.8438C14.3438 15.1255 14.2318 15.3958 14.0326 15.5951C13.8333 15.7943 13.563 15.9062 13.2812 15.9062H3.71875C3.43696 15.9062 3.16671 15.7943 2.96745 15.5951C2.76819 15.3958 2.65625 15.1255 2.65625 14.8438V3.15625C2.65625 2.87446 2.76819 2.60421 2.96745 2.40495ZM9.8737 3.15625L3.71875 3.15625L3.71875 14.8438H13.2812V6.5638L9.8737 3.15625Z" fill="#303030"/>
  <path fill-rule="evenodd" clip-rule="evenodd" d="M10.0938 2.09375C10.3872 2.09375 10.625 2.3316 10.625 2.625V5.8125H13.8125C14.1059 5.8125 14.3438 6.05035 14.3438 6.34375C14.3438 6.63715 14.1059 6.875 13.8125 6.875H10.0938C9.80035 6.875 9.5625 6.63715 9.5625 6.34375V2.625C9.5625 2.3316 9.80035 2.09375 10.0938 2.09375Z" fill="#303030"/>
</svg>
