<svg xmlns="http://www.w3.org/2000/svg" fill="none" viewBox="0 0 17 18" class="design-iconfont">
  <path fill-rule="evenodd" clip-rule="evenodd" d="M9.03125 3.6875C9.03125 3.3941 9.2691 3.15625 9.5625 3.15625H15.4062C15.688 3.15625 15.9583 3.26819 16.1576 3.46745C16.3568 3.66671 16.4688 3.93696 16.4688 4.21875V13.7812C16.4688 14.063 16.3568 14.3333 16.1576 14.5326C15.9583 14.7318 15.688 14.8438 15.4062 14.8438H9.5625C9.2691 14.8438 9.03125 14.6059 9.03125 14.3125C9.03125 14.0191 9.2691 13.7812 9.5625 13.7812H15.4062V4.21875H9.5625C9.2691 4.21875 9.03125 3.9809 9.03125 3.6875Z" fill="#303030"/>
  <path fill-rule="evenodd" clip-rule="evenodd" d="M0.842449 3.46745C1.04171 3.26819 1.31196 3.15625 1.59375 3.15625H7.4375C7.7309 3.15625 7.96875 3.3941 7.96875 3.6875C7.96875 3.9809 7.7309 4.21875 7.4375 4.21875H1.59375V13.7812H7.4375C7.7309 13.7812 7.96875 14.0191 7.96875 14.3125C7.96875 14.6059 7.7309 14.8438 7.4375 14.8438H1.59375C1.31196 14.8438 1.04171 14.7318 0.842449 14.5326C0.643191 14.3333 0.53125 14.063 0.53125 13.7812V4.21875C0.53125 3.93696 0.643192 3.66671 0.842449 3.46745Z" fill="#303030"/>
  <path fill-rule="evenodd" clip-rule="evenodd" d="M2.78906 5.8125C2.78906 5.5191 3.02691 5.28125 3.32031 5.28125H5.17969C5.47309 5.28125 5.71094 5.5191 5.71094 5.8125C5.71094 6.1059 5.47309 6.34375 5.17969 6.34375H3.32031C3.02691 6.34375 2.78906 6.1059 2.78906 5.8125Z" fill="#303030"/>
  <path fill-rule="evenodd" clip-rule="evenodd" d="M4.25 5.28125C4.5434 5.28125 4.78125 5.5191 4.78125 5.8125V8.20312C4.78125 8.49653 4.5434 8.73438 4.25 8.73438C3.9566 8.73438 3.71875 8.49653 3.71875 8.20312V5.8125C3.71875 5.5191 3.9566 5.28125 4.25 5.28125Z" fill="#303030"/>
</svg>
