<svg xmlns="http://www.w3.org/2000/svg" viewBox="0 0 17 17" class="design-iconfont">
  <path d="M11.9531 1.85938C10.1927 1.85938 8.76562 3.28647 8.76562 5.04688C8.76562 6.80728 10.1927 8.23438 11.9531 8.23438C13.7135 8.23438 15.1406 6.80728 15.1406 5.04688C15.1406 3.28647 13.7135 1.85938 11.9531 1.85938ZM9.82812 5.04688C9.82812 3.87327 10.7795 2.92188 11.9531 2.92188C13.1267 2.92188 14.0781 3.87327 14.0781 5.04688C14.0781 6.22048 13.1267 7.17188 11.9531 7.17188C10.7795 7.17188 9.82812 6.22048 9.82812 5.04688Z"/>
  <path d="M2.125 3.1875C2.125 2.6007 2.6007 2.125 3.1875 2.125H6.90625C7.49305 2.125 7.96875 2.6007 7.96875 3.1875V6.90625C7.96875 7.49305 7.49305 7.96875 6.90625 7.96875H3.1875C2.6007 7.96875 2.125 7.49305 2.125 6.90625V3.1875ZM3.1875 3.1875V6.90625H6.90625V3.1875H3.1875Z"/>
  <path d="M2.125 10.0938C2.125 9.50695 2.6007 9.03125 3.1875 9.03125H6.90625C7.49305 9.03125 7.96875 9.50695 7.96875 10.0938V13.8125C7.96875 14.3993 7.49305 14.875 6.90625 14.875H3.1875C2.6007 14.875 2.125 14.3993 2.125 13.8125V10.0938ZM3.1875 10.0938V13.8125H6.90625V10.0938H3.1875Z"/>
  <path d="M9.03125 10.0938C9.03125 9.50695 9.50695 9.03125 10.0938 9.03125H13.8125C14.3993 9.03125 14.875 9.50695 14.875 10.0938V13.8125C14.875 14.3993 14.3993 14.875 13.8125 14.875H10.0938C9.50695 14.875 9.03125 14.3993 9.03125 13.8125V10.0938ZM10.0938 13.8125H13.8125V10.0938H10.0938V13.8125Z"/>
</svg>
