<svg xmlns="http://www.w3.org/2000/svg" viewBox="0 0 17 18" class="design-iconfont">
  <path fill-rule="evenodd" clip-rule="evenodd" d="M8.5 3.15625C5.27259 3.15625 2.65625 5.77259 2.65625 9C2.65625 12.2274 5.27259 14.8438 8.5 14.8438C11.7274 14.8438 14.3438 12.2274 14.3438 9C14.3438 5.77259 11.7274 3.15625 8.5 3.15625ZM1.59375 9C1.59375 5.18578 4.68578 2.09375 8.5 2.09375C12.3142 2.09375 15.4062 5.18578 15.4062 9C15.4062 12.8142 12.3142 15.9062 8.5 15.9062C4.68578 15.9062 1.59375 12.8142 1.59375 9Z"/>
  <path fill-rule="evenodd" clip-rule="evenodd" d="M8.5 4.75C8.7934 4.75 9.03125 4.98785 9.03125 5.28125V8.46875H12.2188C12.5122 8.46875 12.75 8.7066 12.75 9C12.75 9.2934 12.5122 9.53125 12.2188 9.53125H8.5C8.2066 9.53125 7.96875 9.2934 7.96875 9V5.28125C7.96875 4.98785 8.2066 4.75 8.5 4.75Z"/>
</svg>
