<svg xmlns="http://www.w3.org/2000/svg" viewBox="0 0 17 18" class="design-iconfont">
  <path fill-rule="evenodd" clip-rule="evenodd" d="M9.02773 7.40625C9.02773 7.11285 9.26545 6.875 9.55869 6.875H14.3373C14.6305 6.875 14.8683 7.11285 14.8683 7.40625C14.8683 7.69965 14.6305 7.9375 14.3373 7.9375H9.55869C9.26545 7.9375 9.02773 7.69965 9.02773 7.40625Z"/>
  <path fill-rule="evenodd" clip-rule="evenodd" d="M9.03447 9.53125C9.03447 9.23785 9.27219 9 9.56543 9H14.344C14.6373 9 14.875 9.23785 14.875 9.53125C14.875 9.82465 14.6373 10.0625 14.344 10.0625H9.56543C9.27219 10.0625 9.03447 9.82465 9.03447 9.53125Z"/>
  <path fill-rule="evenodd" clip-rule="evenodd" d="M2.65625 11.6562C2.65625 11.3628 2.89397 11.125 3.18721 11.125H14.3373C14.6305 11.125 14.8683 11.3628 14.8683 11.6562C14.8683 11.9497 14.6305 12.1875 14.3373 12.1875H3.18721C2.89397 12.1875 2.65625 11.9497 2.65625 11.6562Z"/>
  <path fill-rule="evenodd" clip-rule="evenodd" d="M2.65625 13.7812C2.65625 13.4878 2.89397 13.25 3.18721 13.25H14.3373C14.6305 13.25 14.8683 13.4878 14.8683 13.7812C14.8683 14.0747 14.6305 14.3125 14.3373 14.3125H3.18721C2.89397 14.3125 2.65625 14.0747 2.65625 13.7812Z"/>
  <path fill-rule="evenodd" clip-rule="evenodd" d="M9.02773 7.40625C9.02773 7.11285 9.26545 6.875 9.55869 6.875H14.3373C14.6305 6.875 14.8683 7.11285 14.8683 7.40625C14.8683 7.69965 14.6305 7.9375 14.3373 7.9375H9.55869C9.26545 7.9375 9.02773 7.69965 9.02773 7.40625Z"/>
  <path fill-rule="evenodd" clip-rule="evenodd" d="M9.02773 9.53125C9.02773 9.23785 9.26545 9 9.55869 9H14.3373C14.6305 9 14.8683 9.23785 14.8683 9.53125C14.8683 9.82465 14.6305 10.0625 14.3373 10.0625H9.55869C9.26545 10.0625 9.02773 9.82465 9.02773 9.53125Z"/>
  <path fill-rule="evenodd" clip-rule="evenodd" d="M2.65625 11.6562C2.65625 11.3628 2.89397 11.125 3.18721 11.125H14.3373C14.6305 11.125 14.8683 11.3628 14.8683 11.6562C14.8683 11.9497 14.6305 12.1875 14.3373 12.1875H3.18721C2.89397 12.1875 2.65625 11.9497 2.65625 11.6562Z"/>
  <path fill-rule="evenodd" clip-rule="evenodd" d="M2.65625 13.7812C2.65625 13.4878 2.89397 13.25 3.18721 13.25H14.3373C14.6305 13.25 14.8683 13.4878 14.8683 13.7812C14.8683 14.0747 14.6305 14.3125 14.3373 14.3125H3.18721C2.89397 14.3125 2.65625 14.0747 2.65625 13.7812Z"/>
  <path fill-rule="evenodd" clip-rule="evenodd" d="M2.125 4.21875C2.125 4.51215 2.36285 4.75 2.65625 4.75L4.78125 4.75V9.53125C4.78125 9.82465 5.0191 10.0625 5.3125 10.0625C5.6059 10.0625 5.84375 9.82465 5.84375 9.53125V4.75L7.96875 4.75C8.26215 4.75 8.5 4.51215 8.5 4.21875C8.5 3.92535 8.26215 3.6875 7.96875 3.6875H5.3125H2.65625C2.36285 3.6875 2.125 3.92535 2.125 4.21875Z"/>
</svg>
