<svg xmlns="http://www.w3.org/2000/svg" viewBox="0 0 17 18" class="design-iconfont">
  <path fill-rule="evenodd" clip-rule="evenodd" d="M1.59375 4.21875C1.59375 3.92535 1.8316 3.6875 2.125 3.6875H14.875C15.1684 3.6875 15.4062 3.92535 15.4062 4.21875V13.25C15.4062 13.5318 15.2943 13.802 15.0951 14.0013C14.8958 14.2006 14.6255 14.3125 14.3438 14.3125H2.65625C2.37446 14.3125 2.10421 14.2006 1.90495 14.0013C1.70569 13.802 1.59375 13.5318 1.59375 13.25V4.21875ZM2.65625 4.75V13.25H14.3438V4.75H2.65625Z"/>
  <path fill-rule="evenodd" clip-rule="evenodd" d="M1.59375 7.40625C1.59375 7.11285 1.8316 6.875 2.125 6.875H14.875C15.1684 6.875 15.4062 7.11285 15.4062 7.40625C15.4062 7.69965 15.1684 7.9375 14.875 7.9375H2.125C1.8316 7.9375 1.59375 7.69965 1.59375 7.40625Z"/>
  <path fill-rule="evenodd" clip-rule="evenodd" d="M1.59375 10.5938C1.59375 10.3003 1.8316 10.0625 2.125 10.0625H14.875C15.1684 10.0625 15.4062 10.3003 15.4062 10.5938C15.4062 10.8872 15.1684 11.125 14.875 11.125H2.125C1.8316 11.125 1.59375 10.8872 1.59375 10.5938Z"/>
  <path fill-rule="evenodd" clip-rule="evenodd" d="M5.84375 6.875C6.13715 6.875 6.375 7.11285 6.375 7.40625V13.7812C6.375 14.0747 6.13715 14.3125 5.84375 14.3125C5.55035 14.3125 5.3125 14.0747 5.3125 13.7812V7.40625C5.3125 7.11285 5.55035 6.875 5.84375 6.875Z"/>
</svg>
