<svg xmlns="http://www.w3.org/2000/svg" fill="none" viewBox="0 0 17 18" class="design-iconfont">
  <path d="M4 3.5C4 4.05231 3.55231 4.5 3 4.5C2.44769 4.5 2 4.05231 2 3.5C2 2.94769 2.44769 2.5 3 2.5C3.55231 2.5 4 2.94769 4 3.5Z" fill="#303030"/>
  <path d="M4 8.5C4 9.05231 3.55231 9.5 3 9.5C2.44769 9.5 2 9.05231 2 8.5C2 7.94769 2.44769 7.5 3 7.5C3.55231 7.5 4 7.94769 4 8.5Z" fill="#303030"/>
  <path d="M3 14.5C3.55231 14.5 4 14.0523 4 13.5C4 12.9477 3.55231 12.5 3 12.5C2.44769 12.5 2 12.9477 2 13.5C2 14.0523 2.44769 14.5 3 14.5Z" fill="#303030"/>
  <path d="M9 3.5C9 4.05231 8.55231 4.5 8 4.5C7.44769 4.5 7 4.05231 7 3.5C7 2.94769 7.44769 2.5 8 2.5C8.55231 2.5 9 2.94769 9 3.5Z" fill="#303030"/>
  <path d="M8 9.5C8.55231 9.5 9 9.05231 9 8.5C9 7.94769 8.55231 7.5 8 7.5C7.44769 7.5 7 7.94769 7 8.5C7 9.05231 7.44769 9.5 8 9.5Z" fill="#303030"/>
  <path d="M9 13.5C9 14.0523 8.55231 14.5 8 14.5C7.44769 14.5 7 14.0523 7 13.5C7 12.9477 7.44769 12.5 8 12.5C8.55231 12.5 9 12.9477 9 13.5Z" fill="#303030"/>
  <path d="M13 4.5C13.5523 4.5 14 4.05231 14 3.5C14 2.94769 13.5523 2.5 13 2.5C12.4477 2.5 12 2.94769 12 3.5C12 4.05231 12.4477 4.5 13 4.5Z" fill="#303030"/>
  <path d="M14 8.5C14 9.05231 13.5523 9.5 13 9.5C12.4477 9.5 12 9.05231 12 8.5C12 7.94769 12.4477 7.5 13 7.5C13.5523 7.5 14 7.94769 14 8.5Z" fill="#303030"/>
  <path d="M13 14.5C13.5523 14.5 14 14.0523 14 13.5C14 12.9477 13.5523 12.5 13 12.5C12.4477 12.5 12 12.9477 12 13.5C12 14.0523 12.4477 14.5 13 14.5Z" fill="#303030"/>
</svg>
