<svg xmlns="http://www.w3.org/2000/svg" fill="none" viewBox="0 0 17 18" class="design-iconfont">
  <path fill-rule="evenodd" clip-rule="evenodd" d="M8.5 3.6875C8.7934 3.6875 9.03125 3.92535 9.03125 4.21875V13.7812C9.03125 14.0747 8.7934 14.3125 8.5 14.3125C8.2066 14.3125 7.96875 14.0747 7.96875 13.7812V4.21875C7.96875 3.92535 8.2066 3.6875 8.5 3.6875Z" fill="#303030"/>
  <path fill-rule="evenodd" clip-rule="evenodd" d="M2.65625 4.21875C2.65625 3.92535 2.8941 3.6875 3.1875 3.6875H13.8125C14.1059 3.6875 14.3438 3.92535 14.3438 4.21875V6.34375C14.3438 6.63715 14.1059 6.875 13.8125 6.875C13.5191 6.875 13.2812 6.63715 13.2812 6.34375V4.75H3.71875V6.34375C3.71875 6.63715 3.4809 6.875 3.1875 6.875C2.8941 6.875 2.65625 6.63715 2.65625 6.34375V4.21875Z" fill="#303030"/>
  <path fill-rule="evenodd" clip-rule="evenodd" d="M5.84375 13.7812C5.84375 13.4878 6.0816 13.25 6.375 13.25H10.625C10.9184 13.25 11.1562 13.4878 11.1562 13.7812C11.1562 14.0747 10.9184 14.3125 10.625 14.3125H6.375C6.0816 14.3125 5.84375 14.0747 5.84375 13.7812Z" fill="#303030"/>
</svg>
