<svg xmlns="http://www.w3.org/2000/svg" viewBox="0 0 17 18" class="design-iconfont">
  <path fill-rule="evenodd" clip-rule="evenodd" d="M1.59375 4.21875C1.59375 3.63195 2.06945 3.15625 2.65625 3.15625H14.3438C14.9306 3.15625 15.4062 3.63195 15.4062 4.21875V13.7812C15.4062 14.3681 14.9306 14.8438 14.3438 14.8438H2.65625C2.06945 14.8438 1.59375 14.3681 1.59375 13.7812V4.21875ZM14.3438 4.21875H2.65625V13.7812H14.3438V4.21875Z"/>
  <path fill-rule="evenodd" clip-rule="evenodd" d="M5.43339 7.70873C5.56336 7.65431 5.70285 7.62629 5.84375 7.62629C5.98465 7.62629 6.12414 7.65431 6.25411 7.70873C6.38334 7.76284 6.50058 7.84197 6.5991 7.94155L9.56251 10.905L9.56535 10.9021L10.9322 9.53525C11.0307 9.43569 11.1479 9.35658 11.2771 9.30248C11.4071 9.24806 11.5466 9.22004 11.6875 9.22004C11.8284 9.22004 11.9679 9.24806 12.0979 9.30248C12.2271 9.35658 12.3443 9.43569 12.4428 9.53525L15.2507 12.3431C15.4581 12.5506 15.4581 12.8869 15.2507 13.0944C15.0432 13.3019 14.7068 13.3019 14.4993 13.0944L11.6875 10.2825L11.6846 10.2854L10.3195 11.6505L10.3179 11.6522C10.2193 11.7518 10.1021 11.8309 9.97286 11.885C9.84289 11.9395 9.7034 11.9675 9.5625 11.9675C9.4216 11.9675 9.28211 11.9395 9.15214 11.885C9.02291 11.8309 8.90566 11.7518 8.80714 11.6522L5.84374 8.6888L5.8409 8.69168L2.50065 12.0319C2.29318 12.2394 1.95682 12.2394 1.74935 12.0319C1.54188 11.8244 1.54188 11.4881 1.74935 11.2806L5.08838 7.94158C5.1869 7.84198 5.30415 7.76284 5.43339 7.70873Z"/>
  <path d="M10.3594 7.9375C10.7995 7.9375 11.1562 7.58073 11.1562 7.14062C11.1562 6.70052 10.7995 6.34375 10.3594 6.34375C9.91927 6.34375 9.5625 6.70052 9.5625 7.14062C9.5625 7.58073 9.91927 7.9375 10.3594 7.9375Z"/>
</svg>
