<svg xmlns="http://www.w3.org/2000/svg" viewBox="0 0 17 18" class="design-iconfont">
  <path fill-rule="evenodd" clip-rule="evenodd" d="M5.3125 5.28125C3.25869 5.28125 1.59375 6.94619 1.59375 9C1.59375 11.0538 3.25869 12.7188 5.3125 12.7188H11.6875C13.7413 12.7188 15.4062 11.0538 15.4062 9C15.4062 6.94619 13.7413 5.28125 11.6875 5.28125H5.3125ZM0.53125 9C0.53125 6.35939 2.67189 4.21875 5.3125 4.21875H11.6875C14.3281 4.21875 16.4688 6.35939 16.4688 9C16.4688 11.6406 14.3281 13.7812 11.6875 13.7812H5.3125C2.67189 13.7812 0.53125 11.6406 0.53125 9Z"/>
  <path fill-rule="evenodd" clip-rule="evenodd" d="M5.3125 7.40625C4.4323 7.40625 3.71875 8.1198 3.71875 9C3.71875 9.8802 4.4323 10.5938 5.3125 10.5938C6.1927 10.5938 6.90625 9.8802 6.90625 9C6.90625 8.1198 6.1927 7.40625 5.3125 7.40625ZM2.65625 9C2.65625 7.53299 3.84549 6.34375 5.3125 6.34375C6.77951 6.34375 7.96875 7.53299 7.96875 9C7.96875 10.467 6.77951 11.6562 5.3125 11.6562C3.84549 11.6562 2.65625 10.467 2.65625 9Z"/>
</svg>
