<svg xmlns="http://www.w3.org/2000/svg" viewBox="0 0 17 18" class="design-iconfont">
  <path d="M14.5961 12.1868C14.2017 11.5055 13.7315 10.2152 13.7315 7.9375V7.46602C13.7308 4.52555 11.3701 2.11566 8.46814 2.09375H8.43095C7.01384 2.09574 5.68173 2.64957 4.68165 3.65297C3.68091 4.65637 3.13107 5.98914 3.13306 7.40625V7.9375C3.13306 10.2152 2.6629 11.5055 2.26779 12.1875C2.17482 12.3475 2.12501 12.5302 2.12501 12.7148C2.12368 12.9983 2.23325 13.2659 2.4338 13.4671C2.63435 13.6684 2.89997 13.7799 3.18618 13.7813H5.77536C5.77536 15.2462 6.96669 16.4375 8.43161 16.4375C9.89654 16.4375 11.0879 15.2462 11.0879 13.7813H13.6797C13.865 13.7813 14.0476 13.7314 14.207 13.6391C14.4527 13.497 14.6286 13.2679 14.7024 12.9943C14.7761 12.7201 14.7382 12.4339 14.5961 12.1875V12.1868ZM8.43228 15.375C7.55372 15.375 6.83853 14.6598 6.83853 13.7813H10.026C10.026 14.6598 9.31083 15.375 8.43228 15.375ZM10.5606 12.7188C10.5606 12.7188 10.5586 12.7188 10.5573 12.7188C10.5559 12.7188 10.5553 12.7188 10.554 12.7188H6.31392C6.31392 12.7188 6.30927 12.7188 6.30661 12.7188C6.30396 12.7188 6.30197 12.7188 6.29931 12.7188H3.18751C3.64704 11.9245 4.19556 10.4503 4.19556 7.93684V7.40559C4.19423 6.27137 4.63384 5.20488 5.43404 4.4027C6.23423 3.59984 7.29939 3.15691 8.43361 3.15559H8.4615C10.7817 3.17352 12.669 5.1066 12.669 7.46535V7.93684C12.669 10.4503 13.2168 11.9245 13.6784 12.7181H10.5606V12.7188Z"/>
</svg>
