<svg width="100" height="21" viewBox="0 0 100 21" fill="none" xmlns="http://www.w3.org/2000/svg">
<g clip-path="url(#clip0_104_34185)">
<path fill-rule="evenodd" clip-rule="evenodd" d="M12.8864 20.9892C14.9383 20.9575 16.1913 20.8324 17.2173 20.3383C18.5811 19.6815 19.6815 18.5811 20.3383 17.2173C21 15.8433 21 14.0622 21 10.5C21 6.93782 21 5.15674 20.3383 3.78269C19.6815 2.41888 18.5811 1.31848 17.2173 0.661708C15.8433 0 14.0622 0 10.5 0C9.88717 0 9.32706 0 8.81267 0.00336924C8.73902 0.00112849 8.6651 0 8.59091 0V0.00506524C6.2516 0.0257013 4.88594 0.13041 3.78269 0.661708C2.41888 1.31848 1.31848 2.41888 0.661708 3.78269C0 5.15674 0 6.93782 0 10.5C0 14.0622 0 15.8433 0.661708 17.2173C1.31848 18.5811 2.41888 19.6815 3.78269 20.3383C5.15674 21 6.93782 21 10.5 21C11.27 21 11.9568 21 12.5742 20.9933C12.6777 20.9978 12.7818 21 12.8864 21V20.9892ZM8.00531 19.0781C7.41671 19.0676 6.9137 19.0486 6.46899 19.014C5.51872 18.94 4.99563 18.8035 4.61101 18.6183C3.63686 18.1491 2.85087 17.3631 2.38174 16.389C2.19652 16.0044 2.06003 15.4813 1.98604 14.531C1.92451 13.7407 1.91216 12.7663 1.9097 11.4545H5.72727V13.8409C5.72727 15.9084 6.6037 17.7712 8.00531 19.0781ZM12.6086 19.0837C9.83823 18.9393 7.63636 16.6472 7.63636 13.8409V11.4545H19.0903C19.0878 12.7663 19.0755 13.7407 19.014 14.531C18.94 15.4813 18.8035 16.0044 18.6183 16.389C18.1491 17.3631 17.3631 18.1491 16.389 18.6183C16.0044 18.8035 15.4813 18.94 14.531 19.014C13.992 19.0559 13.3674 19.075 12.6086 19.0837ZM1.98604 6.46899C1.92451 7.25929 1.91216 8.23372 1.9097 9.54545H13.8409V7.15909C13.8409 4.32576 11.5965 2.01665 8.78852 1.91274C7.84648 1.91918 7.0992 1.93697 6.46899 1.98604C5.51872 2.06003 4.99563 2.19652 4.61101 2.38174C3.63686 2.85087 2.85087 3.63686 2.38174 4.61101C2.19652 4.99563 2.06003 5.51872 1.98604 6.46899ZM19.0903 9.54545H15.75V7.15909C15.75 5.09757 14.8787 3.23957 13.4842 1.93329C13.8691 1.94468 14.2148 1.96142 14.531 1.98604C15.4813 2.06003 16.0044 2.19652 16.389 2.38174C17.3631 2.85087 18.1491 3.63686 18.6183 4.61101C18.8035 4.99563 18.94 5.51872 19.014 6.46899C19.0755 7.25929 19.0878 8.23372 19.0903 9.54545Z" fill="#0052D9"/>
<path d="M32.1621 13.4355H36.6536V16H29.4197V5.17882H32.1621V13.4355ZM42.0929 16.1482C40.828 16.1482 39.7805 15.7579 38.9503 14.9772C38.1103 14.1866 37.6903 13.2181 37.6903 12.0718C37.6903 10.8562 38.1054 9.84824 38.9355 9.04776C39.7656 8.24729 40.8181 7.84706 42.0929 7.84706C43.3678 7.84706 44.4202 8.24729 45.2503 9.04776C46.0805 9.84824 46.4955 10.8562 46.4955 12.0718C46.4955 13.2181 46.0805 14.1866 45.2503 14.9772C44.4103 15.7579 43.3579 16.1482 42.0929 16.1482ZM42.0929 13.732C42.6266 13.732 43.0565 13.5739 43.3826 13.2576C43.7087 12.9414 43.8718 12.5264 43.8718 12.0125C43.8718 11.4788 43.7087 11.0539 43.3826 10.7376C43.0565 10.4214 42.6266 10.2633 42.0929 10.2633C41.5593 10.2633 41.1294 10.4214 40.8033 10.7376C40.4772 11.0539 40.3141 11.4739 40.3141 11.9976C40.3141 12.5214 40.4772 12.9414 40.8033 13.2576C41.1294 13.5739 41.5593 13.732 42.0929 13.732ZM56.8767 7.99529H59.3967L56.9805 16H54.757L53.2302 11.3454L51.644 16H49.4205L47.108 7.99529H49.6577L50.7546 12.9315L52.2073 7.99529H54.3419L55.6909 12.8278L56.8767 7.99529ZM70.1741 14.5621C69.6504 15.0859 69.0228 15.4861 68.2916 15.7628C67.5603 16.0395 66.829 16.1779 66.0977 16.1779C64.3386 16.1384 62.96 15.6047 61.9619 14.5769C60.9638 13.5393 60.4548 12.2299 60.4351 10.6487C60.4647 9.028 60.9885 7.69388 62.0064 6.64635C63.0341 5.58894 64.3979 5.04047 66.0977 5.00094C67.7777 5.05035 69.1167 5.56918 70.1148 6.55741L68.7363 8.58824C68.1532 7.94588 67.3132 7.62471 66.2163 7.62471C65.3861 7.62471 64.6845 7.89647 64.1113 8.44C63.5381 8.98353 63.2516 9.69506 63.2516 10.5746C63.2516 11.5332 63.5085 12.2793 64.0224 12.8129C64.5363 13.3466 65.1984 13.6134 66.0087 13.6134C67.0464 13.6035 67.921 13.2626 68.6325 12.5906L70.1741 14.5621ZM75.7933 16.1482C74.5284 16.1482 73.4808 15.7579 72.6507 14.9772C71.8107 14.1866 71.3907 13.2181 71.3907 12.0718C71.3907 10.8562 71.8058 9.84824 72.6359 9.04776C73.466 8.24729 74.5185 7.84706 75.7933 7.84706C77.0681 7.84706 78.1206 8.24729 78.9507 9.04776C79.7808 9.84824 80.1959 10.8562 80.1959 12.0718C80.1959 13.2181 79.7808 14.1866 78.9507 14.9772C78.1107 15.7579 77.0582 16.1482 75.7933 16.1482ZM75.7933 13.732C76.3269 13.732 76.7568 13.5739 77.0829 13.2576C77.4091 12.9414 77.5721 12.5264 77.5721 12.0125C77.5721 11.4788 77.4091 11.0539 77.0829 10.7376C76.7568 10.4214 76.3269 10.2633 75.7933 10.2633C75.2597 10.2633 74.8298 10.4214 74.5037 10.7376C74.1775 11.0539 74.0145 11.4739 74.0145 11.9976C74.0145 12.5214 74.1775 12.9414 74.5037 13.2576C74.8298 13.5739 75.2597 13.732 75.7933 13.732ZM86.9825 4.28941H89.6211V16H87.1752L86.9973 15.4219C86.5526 15.8369 86.019 16.0741 85.3964 16.1334C85.2976 16.1433 85.1938 16.1482 85.0851 16.1482C83.9585 16.1482 83.0592 15.7727 82.3872 15.0216C81.7152 14.2706 81.3792 13.2576 81.3792 11.9828C81.3792 10.7475 81.7498 9.74941 82.491 8.98847C83.2322 8.22753 84.1413 7.84706 85.2185 7.84706C85.6138 7.84706 85.9696 7.89153 86.2858 7.98047C86.5428 8.05953 86.775 8.16329 86.9825 8.29176V4.28941ZM85.8263 14.0729C86.0141 14.0729 86.2117 14.0334 86.4192 13.9544C86.6268 13.8654 86.8145 13.7567 86.9825 13.6282V10.3226C86.7948 10.1941 86.5922 10.1052 86.3748 10.0558C86.187 10.0064 85.9893 9.98165 85.7818 9.98165C85.2679 9.98165 84.8381 10.1595 84.4922 10.5153C84.1463 10.8711 83.9733 11.3602 83.9733 11.9828C83.9733 12.6449 84.1413 13.1588 84.4773 13.5245C84.8133 13.8901 85.263 14.0729 85.8263 14.0729ZM93.8033 12.8278C93.8725 13.2231 94.0751 13.5195 94.4111 13.7172C94.7372 13.9148 95.1325 14.0136 95.597 14.0136C95.9923 14.0136 96.3875 13.9395 96.7828 13.7913C97.1781 13.6431 97.5043 13.4405 97.7612 13.1835L99.2139 14.6362C98.6605 15.2193 98.0923 15.6195 97.5092 15.8369C96.9163 16.0445 96.2541 16.1482 95.5228 16.1482C94.248 16.1482 93.2054 15.7875 92.3951 15.0661C91.5847 14.3447 91.1795 13.3515 91.1795 12.0866C91.1795 10.8414 91.5452 9.82353 92.2765 9.03294C92.9979 8.24235 94.0059 7.84706 95.3005 7.84706C96.5852 7.84706 97.5685 8.20776 98.2504 8.92918C98.9224 9.64071 99.2584 10.5894 99.2584 11.7753C99.2386 12.1311 99.2188 12.4819 99.1991 12.8278H93.8033ZM95.3005 9.96682C94.9546 9.96682 94.6433 10.0656 94.3666 10.2633C94.0899 10.4511 93.9021 10.7376 93.8033 11.1231H96.7087C96.6791 10.7673 96.521 10.4856 96.2344 10.2781C95.9379 10.0706 95.6266 9.96682 95.3005 9.96682Z" fill="#303030"/>
</g>
<defs>
<clipPath id="clip0_104_34185">
<rect width="100" height="21" fill="white"/>
</clipPath>
</defs>
</svg>
